:SAMPLES-PER-SECOND 30
:FULLY-SPECIFIED
:DEGREES
93
root  -26.582 38.4079 -18.47 4.77721 -2.75905 -2.88161
RightUpLeg  1.63579 -1.5456 -11.2857
RightLeg  50.4263 1.23761 1.17185
RightFoot  10.7318 -2.65865 13.9545
RightToes  -1.74624e-010 0 -3.6325e-017
Spine  7.57778 5.58093 6.4297
Spine1  6.07844 8.26605 -10.579
HEad  -11.7064 -0.0931468 -1.13497
LeftShoulder1  7.51933 -11.292 -44.251
LeftArm  -4.00289 41.9447 -24.4697
LeftForeArm  -176.016 -58.0132 -165.239
LeftHand  -0.244104 0.0205437 5.32207
RightShoulder  6.72895 10.8015 40.8506
RightArm  8.99204 -14.4175 32.6429
RightForeArm  168.185 63.2518 160.263
RightHand  -0.103334 -8.2662 2.22654
LeftUpLeg  -21.7892 8.98275 -15.6847
LeftLeg  27.3858 11.3154 6.64795
LeftFoot  -17.6319 0.632499 9.35835
LeftToes  9.06232e-013 -1.14826e-010 3.0111e-013
94
root  -27.1397 37.7089 -16.8349 3.3584 -1.33817 -1.32034
RightUpLeg  -2.74161 0.667823 -13.9794
RightLeg  60.9831 -1.25677 -2.98339
RightFoot  9.41556 -1.89789 10.6869
RightToes  -1.74624e-010 0 -3.6325e-017
Spine  9.20103 4.29534 3.09534
Spine1  6.13128 6.66135 -9.29301
HEad  -14.2903 -0.0507546 0.205508
LeftShoulder1  7.51203 -10.8117 -45.7423
LeftArm  -4.60567 36.4905 -23.4141
LeftForeArm  -177.805 -60.6867 -163.422
LeftHand  -0.244104 0.0205437 5.32207
RightShoulder  6.87304 10.759 41.928
RightArm  8.54861 -15.4627 34.2944
RightForeArm  165.207 68.1034 155.034
RightHand  -0.0573348 -7.5467 0.593227
LeftUpLeg  -20.3526 9.6868 -16.8181
LeftLeg  33.0259 11.2274 8.12007
LeftFoot  -20.1588 1.19097 13.8211
LeftToes  9.06232e-013 -1.14826e-010 3.0111e-013
95
root  -27.5902 37.2993 -15.2462 2.60559 0.952377 0.251465
RightUpLeg  -8.39299 0.791944 -16.6524
RightLeg  68.6237 -2.34652 -7.28987
RightFoot  6.92057 -1.12962 7.27811
RightToes  -1.74624e-010 0 -3.6325e-017
Spine  10.5178 2.65405 -0.245659
Spine1  6.23054 4.52655 -7.83161
HEad  -16.5007 -0.353122 1.57471
LeftShoulder1  7.97962 -10.9415 -48.1929
LeftArm  -4.91032 29.056 -21.5496
LeftForeArm  179.45 -65.2924 -159.664
LeftHand  -0.244104 0.0205437 5.32207
RightShoulder  7.13198 10.7078 43.7754
RightArm  6.39411 -18.0203 34.6642
RightForeArm  154.507 74.3824 142.926
RightHand  0.0226907 -7.38452 -3.20739
LeftUpLeg  -18.4611 9.11158 -17.4753
LeftLeg  37.2736 10.5353 8.85955
LeftFoot  -23.9586 1.67051 13.8194
LeftToes  9.06232e-013 -1.14826e-010 3.0111e-013
96
root  -27.8909 37.2915 -13.5566 2.31938 2.66289 0.542923
RightUpLeg  -14.553 0.426291 -17.2095
RightLeg  71.72 -2.73986 -10.1218
RightFoot  3.07089 -0.487003 4.01355
RightToes  -1.74624e-010 0 -3.6325e-017
Spine  10.8211 1.35014 -2.14645
Spine1  6.59055 2.61704 -5.89959
HEad  -17.204 -0.559206 2.26951
LeftShoulder1  8.72637 -11.6802 -50.166
LeftArm  -5.02514 22.5799 -21.1559
LeftForeArm  179.137 -68.6017 -156.354
LeftHand  -0.244104 0.0205437 5.32207
RightShoulder  7.29026 10.6553 44.9717
RightArm  4.42649 -22.7565 32.9875
RightForeArm  136.449 78.3353 125.648
RightHand  0.101805 -8.07754 -5.94276
LeftUpLeg  -14.8822 9.15634 -16.394
LeftLeg  37.4711 9.38098 8.02338
LeftFoot  -26.4953 1.69389 11.4672
LeftToes  9.06232e-013 -1.14826e-010 3.0111e-013
97
root  -28.0412 37.7063 -11.6944 1.98763 3.18761 -0.942963
RightUpLeg  -19.8153 0.0454739 -14.8566
RightLeg  69.6573 -3.89611 -12.2669
RightFoot  -0.364813 -0.206061 2.17463
RightToes  -1.74624e-010 0 -3.6325e-017
Spine  10.4173 0.39088 -2.62224
Spine1  6.74043 0.811014 -2.7206
HEad  -16.6128 0.183655 1.53979
LeftShoulder1  9.07498 -12.1763 -50.5179
LeftArm  -4.83509 18.7777 -23.7077
LeftForeArm  -176.958 -68.4238 -156.926
LeftHand  -0.244104 0.0205437 5.32207
RightShoulder  7.00185 10.3734 44.0176
RightArm  5.56429 -29.0285 29.6552
RightForeArm  127.856 78.4793 121.909
RightHand  0.114665 -7.7044 -7.46626
LeftUpLeg  -9.41717 10.052 -13.3195
LeftLeg  33.6324 8.54473 6.43525
LeftFoot  -26.5716 1.50042 9.99874
LeftToes  9.06232e-013 -1.14826e-010 3.0111e-013
98
root  -28.1016 38.4565 -9.70582 1.82539 3.37218 -3.29865
RightUpLeg  -23.3645 -1.79173 -10.574
RightLeg  62.8145 -6.59686 -14.1505
RightFoot  -2.13838 -0.200895 2.32628
RightToes  -1.74624e-010 0 -3.6325e-017
Spine  9.84257 -0.763557 -2.85955
Spine1  6.17986 -1.47164 1.62063
HEad  -15.4969 2.26275 -0.231427
LeftShoulder1  8.77217 -11.9781 -49.4544
LeftArm  -4.00568 16.9414 -27.8267
LeftForeArm  -173.076 -66.0607 -159.766
LeftHand  -0.244104 0.0205437 5.32207
RightShoulder  6.25232 9.69888 41.1349
RightArm  10.3506 -34.7423 25.3498
RightForeArm  130.67 76.3439 132.352
RightHand  0.0499546 -6.32293 -9.14231
LeftUpLeg  -3.30628 10.9668 -9.26318
LeftLeg  27.7371 7.48715 4.62443
LeftFoot  -24.282 1.16831 8.98471
LeftToes  9.06232e-013 -1.14826e-010 3.0111e-013
